<svg width="119" height="37" viewBox="0 0 119 37" fill="none" xmlns="http://www.w3.org/2000/svg">
<g opacity="0.6">
<path fill-rule="evenodd" clip-rule="evenodd" d="M33.5265 24.7764C33.7034 25.1881 33.8804 25.6585 34.0574 26.129C34.5882 27.4816 34.7062 28.7754 34.5292 30.0692C34.1163 32.7745 32.3468 35.1269 29.7514 36.1854C28.8077 36.5971 27.8049 36.7735 26.7432 36.7735C26.4483 36.7735 26.0944 36.7735 25.7994 36.7147C24.5608 36.5971 23.3221 36.1854 22.0834 35.4797C20.6088 34.6564 19.1341 33.4214 17.4826 31.6571C15.831 33.4214 14.4153 34.6564 12.8817 35.4797C11.643 36.1854 10.4043 36.5383 9.16566 36.7147C9.01824 36.7147 8.85608 36.7294 8.69391 36.7441L8.69377 36.7441C8.53157 36.7588 8.36936 36.7735 8.22189 36.7735C7.16016 36.7735 6.15742 36.5971 5.21366 36.1854C2.6773 35.1269 0.789776 32.8333 0.37688 30.0692C0.199925 28.7166 0.37688 27.4228 0.848761 26.129C1.02572 25.5997 1.20267 25.1881 1.37963 24.7764C1.67455 24.1295 1.96948 23.4826 2.20542 22.8945L2.2644 22.8357C4.85975 17.3076 7.57306 11.7207 10.4043 6.19258L10.5223 5.95734C10.8172 5.42807 11.1121 4.84 11.4071 4.25192L11.4071 4.25186C11.4865 4.12741 11.566 4.00078 11.6462 3.87281L11.6462 3.8728L11.6462 3.87279C11.9832 3.33559 12.335 2.77478 12.7637 2.25234C14.0024 0.840911 15.654 0.0175781 17.4826 0.0175781C19.2521 0.0175781 20.9627 0.840911 22.1424 2.31115C22.7322 2.95805 23.1451 3.66377 23.499 4.31067L23.4991 4.31077C23.794 4.89884 24.0889 5.48689 24.3838 6.01615L24.5018 6.25139C27.392 11.7795 30.1054 17.3664 32.6417 22.8945H32.7007C32.9366 23.4826 33.2316 24.1295 33.5265 24.7764ZM62.5471 9.25067C62.5471 10.6033 61.4854 11.6619 60.1288 11.6619C58.7721 11.6619 57.7104 10.6033 57.7104 9.25067C57.7104 7.89805 58.7721 6.83948 60.1288 6.83948C61.5444 6.89829 62.5471 7.95686 62.5471 9.25067ZM52.6966 14.0731V14.6611C52.6966 14.6611 51.5759 13.1909 49.0985 13.1909C45.0876 13.1909 41.9614 16.249 41.9614 20.4833C41.9614 24.6588 45.0876 27.7757 49.0985 27.7757C51.5759 27.7757 52.6966 26.2466 52.6966 26.2466V26.8935C52.6966 27.1876 52.9326 27.4228 53.2275 27.4228H56.2357V13.5438H53.2275C52.8736 13.5438 52.6966 13.779 52.6966 14.0731ZM49.6884 24.4235C51.0451 24.4235 52.1658 23.7178 52.6966 22.8945V17.9545C52.1658 17.19 50.9861 16.4254 49.6884 16.4254C47.329 16.4254 45.5005 17.8957 45.5005 20.4245C45.5005 22.9533 47.329 24.4235 49.6884 24.4235ZM58.3592 13.5438H61.8983V27.364H58.3592V13.5438ZM107.671 14.6611C107.671 14.6611 108.85 13.1909 111.269 13.1909C115.28 13.1909 118.406 16.249 118.406 20.4245C118.406 24.6 115.28 27.7169 111.269 27.7169C108.791 27.7169 107.671 26.1878 107.671 26.1878V26.8347C107.671 27.1288 107.435 27.364 107.14 27.364H104.132V6.89829H107.671V14.6611ZM110.679 24.3647C109.322 24.3647 108.261 23.659 107.671 22.8357V17.8957C108.202 17.1311 109.381 16.3666 110.679 16.3666C113.038 16.3666 114.867 17.8369 114.867 20.3657C114.867 22.8945 113.038 24.3647 110.679 24.3647ZM102.303 27.4228V19.1895C102.303 16.8371 101.831 15.5433 100.652 14.5435C99.5898 13.6614 98.2921 13.1909 96.7585 13.1909C95.4018 13.1909 94.0452 13.6026 92.9834 14.6611V14.0731C92.9834 13.779 92.7475 13.5438 92.4526 13.5438H89.6213V27.4228H93.1604V17.7781C93.8682 16.9547 94.9889 16.4254 96.0507 16.4254C97.9972 16.4254 98.764 17.3076 98.764 19.6011V27.4228H102.303ZM81.0095 13.1909C78.5911 13.1909 77.4114 14.6611 77.4114 14.6611V6.89829H73.8723V27.364H76.8805C77.1754 27.364 77.4114 27.1288 77.4114 26.8347V26.1878C77.4114 26.1878 78.5321 27.7169 81.0095 27.7169C85.0205 27.7169 88.1467 24.6 88.1467 20.4245C88.2057 16.249 85.0794 13.1909 81.0095 13.1909ZM77.4114 22.8357C78.0012 23.659 79.063 24.3647 80.4196 24.3647C82.779 24.3647 84.6076 22.8945 84.6076 20.3657C84.6076 17.8369 82.779 16.3666 80.4196 16.3666C79.1219 16.3666 77.9423 17.1311 77.4114 17.8957V22.8357ZM70.864 13.1909C71.9258 13.1909 72.5156 13.3673 72.5156 13.3673V16.6607C72.5156 16.6607 69.5664 15.6609 67.7378 17.7781V27.4228H64.1987V13.5438H67.207C67.5019 13.5438 67.7378 13.779 67.7378 14.0731V14.6611C68.3277 13.8966 69.7433 13.1909 70.864 13.1909ZM17.4236 28.0109C15.4181 25.4821 14.1204 23.1297 13.7075 21.189C13.5306 20.3657 13.4716 19.6011 13.5895 18.9542C13.6485 18.3661 13.8845 17.8369 14.1794 17.4252C14.8872 16.4254 16.0669 15.7785 17.4236 15.7785C18.7802 15.7785 20.0189 16.3666 20.6677 17.4252C20.9627 17.8957 21.1986 18.3661 21.2576 18.9542C21.3756 19.6011 21.3166 20.3657 21.1396 21.189C20.7267 23.1297 19.4291 25.4821 17.4236 28.0109ZM28.8077 34.0683C30.6362 33.3626 31.9339 31.7159 32.1698 29.7752C32.2878 28.7754 32.1698 27.8933 31.9929 26.9523C31.929 26.7613 31.8479 26.5703 31.7588 26.3606C31.6833 26.1829 31.6022 25.9919 31.521 25.7761C31.3735 25.4821 31.2408 25.1734 31.1081 24.8646C30.9754 24.5559 30.8427 24.2471 30.6952 23.9531V23.8942C28.1588 18.425 25.4455 12.8381 22.6143 7.36877L22.4963 7.13353L22.4963 7.1335C22.2013 6.54542 21.9064 5.95733 21.6115 5.42805C21.3166 4.83996 20.9627 4.25186 20.5498 3.78139C19.783 2.89924 18.7212 2.42877 17.6005 2.42877C16.4798 2.42877 15.4181 2.89924 14.6513 3.78139C14.2384 4.31067 13.8845 4.83996 13.5895 5.42805C13.2946 6.01615 12.9997 6.60424 12.7048 7.13353L12.5868 7.36877C9.69652 12.8381 6.98321 18.425 4.44685 23.8942L4.38787 23.9531C4.09294 24.5411 3.79801 25.1881 3.56207 25.7761C3.38512 26.1878 3.20816 26.5995 3.09019 26.9523C2.6773 28.0109 2.61831 28.8931 2.73628 29.834C2.97222 31.7159 4.2699 33.3626 6.09843 34.1271C6.92422 34.4211 7.86798 34.5976 8.87073 34.48C9.81449 34.3623 10.7583 34.0683 11.702 33.539C12.9997 32.7745 14.3563 31.6571 15.89 29.9516C13.4716 26.9523 11.938 24.1883 11.4071 21.7771C11.1122 20.6597 11.0532 19.6011 11.2301 18.6602C11.4071 17.7192 11.702 16.8959 12.2329 16.1314C13.3536 14.5435 15.3001 13.5438 17.4236 13.5438C19.547 13.5438 21.4935 14.4847 22.6143 16.1314C23.1451 16.8959 23.44 17.7192 23.617 18.6602C23.735 19.6011 23.676 20.6597 23.44 21.7771C22.8502 24.1883 21.3756 26.8935 18.9572 29.8928C20.4908 31.5983 21.7885 32.7157 23.1451 33.4802C24.1479 34.0095 25.0326 34.3035 25.9764 34.4212C26.9791 34.5388 27.9229 34.4211 28.8077 34.0683Z" fill="#57586E"/>
</g>
</svg>
