<svg width="15" height="12" viewBox="0 0 15 12" fill="none" xmlns="http://www.w3.org/2000/svg">
<g id="Icon">
<path id="Icon_2" d="M5.09764 11.7363L0.205078 6.87308C0.0683591 6.73636 0 6.56058 0 6.34574C0 6.13089 0.0683591 5.95511 0.205078 5.81839L1.28906 4.76371C1.42578 4.60746 1.59668 4.52934 1.80175 4.52934C2.00683 4.52934 2.1875 4.60746 2.34374 4.76371L5.62499 8.04495L12.6562 1.01372C12.8125 0.857468 12.9931 0.779343 13.1982 0.779343C13.4033 0.779343 13.5742 0.857468 13.7109 1.01372L14.7949 2.0684C14.9316 2.20512 15 2.3809 15 2.59574C15 2.81059 14.9316 2.98637 14.7949 3.12309L6.15233 11.7363C6.01561 11.8926 5.83983 11.9707 5.62499 11.9707C5.41014 11.9707 5.23436 11.8926 5.09764 11.7363Z" fill="#36B37E"/>
</g>
</svg>
