<svg width="119" height="32" viewBox="0 0 119 32" fill="none" xmlns="http://www.w3.org/2000/svg">
<g opacity="0.6">
<path fill-rule="evenodd" clip-rule="evenodd" d="M17.5096 2.97213C17.5096 4.19548 16.4426 5.24406 15.1977 5.24406C13.9528 5.24406 12.8858 4.19548 12.8858 2.97213C12.8858 1.74878 13.9528 0.700195 15.1977 0.700195C16.4426 0.700195 17.5096 1.74878 17.5096 2.97213ZM15.1977 7.10821C13.8342 7.10821 12.7672 8.1568 12.7672 9.49666C12.7672 10.8365 13.8342 11.8851 15.1977 11.8851C16.5611 11.8851 17.6282 10.8365 17.6282 9.49666C17.6282 8.09854 16.5611 7.10821 15.1977 7.10821ZM12.7079 15.9047C12.7079 14.5648 13.8342 13.458 15.1977 13.458C16.5611 13.458 17.7467 14.5648 17.6874 15.9047C17.6874 17.2445 16.5611 18.3514 15.1977 18.3514C13.8342 18.3514 12.7079 17.2445 12.7079 15.9047ZM15.1977 19.9243C13.8342 19.9243 12.7672 20.9728 12.7672 22.3127C12.7672 23.6526 13.8342 24.7011 15.1977 24.7011C16.5611 24.7011 17.6282 23.6526 17.6282 22.3127C17.6282 21.0311 16.5611 19.9243 15.1977 19.9243ZM12.8858 28.779C12.8858 27.5556 13.9528 26.507 15.1977 26.507C16.5018 26.507 17.5096 27.5556 17.5096 28.779C17.5096 30.0023 16.4426 31.0509 15.1977 31.0509C13.9528 31.0509 12.8858 30.0023 12.8858 28.779ZM21.5999 6.81694C20.1179 6.81694 18.873 8.04029 18.873 9.49666C18.873 10.953 20.1179 12.1764 21.5999 12.1764C23.0819 12.1764 24.3268 10.953 24.3268 9.49666C24.3268 8.04029 23.0819 6.81694 21.5999 6.81694ZM18.7545 15.9629C18.7545 14.3901 20.0586 13.1667 21.5999 13.1667C23.1412 13.1667 24.4454 14.3901 24.4454 15.9629C24.4454 17.5358 23.1412 18.7592 21.5999 18.7592C19.9994 18.7592 18.7545 17.4776 18.7545 15.9629ZM21.5999 19.633C20.1179 19.633 18.873 20.8563 18.873 22.3127C18.873 23.7691 20.1179 24.9924 21.5999 24.9924C23.0819 24.9924 24.3268 23.7691 24.3268 22.3127C24.3268 20.8563 23.0819 19.633 21.5999 19.633ZM25.0382 15.9047C25.0382 14.157 26.5202 12.8172 28.18 12.8172C29.8398 12.8172 31.2033 14.157 31.3218 15.9047C31.3218 17.6523 29.9584 18.9922 28.18 18.9922C26.4016 18.9922 25.0382 17.5358 25.0382 15.9047ZM8.73617 7.39949C7.60985 7.39949 6.66137 8.33156 6.66137 9.4384C6.66137 10.5452 7.60985 11.4773 8.73617 11.4773C9.86248 11.4773 10.811 10.5452 10.811 9.4384C10.811 8.33156 9.92177 7.39949 8.73617 7.39949ZM6.54281 15.9047C6.54281 14.6813 7.49129 13.7493 8.73617 13.7493C9.98104 13.7493 10.9295 14.6813 10.9295 15.9047C10.9295 17.128 9.98104 18.0601 8.73617 18.0601C7.49129 18.0601 6.54281 17.128 6.54281 15.9047ZM8.73617 20.2155C7.60985 20.2155 6.66137 21.1476 6.66137 22.2544C6.66137 23.3613 7.60985 24.2934 8.73617 24.2934C9.86248 24.2934 10.811 23.3613 10.811 22.2544C10.811 21.1476 9.92177 20.2155 8.73617 20.2155ZM0.377686 15.9629C0.377686 14.9143 1.20761 14.0988 2.27465 14.0988C3.34169 14.0988 4.17161 14.9143 4.17161 15.9629C4.17161 17.0115 3.34169 17.8271 2.27465 17.8271C1.20761 17.8271 0.377686 17.0115 0.377686 15.9629Z" fill="#57586E"/>
<path d="M54.9154 11.9432C54.6783 11.9432 54.5005 12.1763 54.5005 12.351V28.4876C54.5005 28.7206 54.7376 28.8954 54.9154 28.8954H56.8717C57.1088 28.8954 57.2866 28.6623 57.2866 28.4876V12.351C57.2866 12.118 57.0495 11.9432 56.8717 11.9432H54.9154V11.9432Z" fill="#57586E"/>
<path d="M55.9824 5.12744C54.9154 5.12744 54.0854 5.94301 54.0854 6.99159C54.0854 8.04018 54.9154 8.85574 55.9824 8.85574C57.0494 8.85574 57.8794 8.04018 57.8794 6.99159C57.8794 5.94301 56.9902 5.12744 55.9824 5.12744Z" fill="#57586E"/>
<path d="M97.0041 11.9432C96.767 11.9432 96.5891 12.1763 96.5891 12.351V28.4876C96.5891 28.7206 96.8262 28.8954 97.0041 28.8954H98.9603C99.1974 28.8954 99.3753 28.6623 99.3753 28.4876V12.351C99.3753 12.118 99.1382 11.9432 98.9603 11.9432H97.0041V11.9432Z" fill="#57586E"/>
<path d="M97.9526 5.12744C96.8856 5.12744 96.0557 5.94301 96.0557 6.99159C96.0557 8.04018 96.8856 8.85574 97.9526 8.85574C99.0197 8.85574 99.8496 8.04018 99.8496 6.99159C99.8496 5.94301 99.0197 5.12744 97.9526 5.12744Z" fill="#57586E"/>
<path fill-rule="evenodd" clip-rule="evenodd" d="M117.968 27.1285C117.956 27.1853 117.926 27.2538 117.853 27.3224C117.853 27.439 117.73 27.5555 117.483 27.4972L117.578 27.6062C117.565 27.6109 117.554 27.6137 117.545 27.6137H117.359L117.792 28.138H118.039L117.578 27.6062C117.598 27.5983 117.622 27.585 117.649 27.5703C117.709 27.5372 117.781 27.4972 117.853 27.4972C117.977 27.4972 117.977 27.3807 117.977 27.2642C117.977 27.2163 117.977 27.1684 117.968 27.1285ZM117.112 27.6137V27.439V26.9147H117.545C117.668 26.9147 117.792 26.9147 117.853 27.0312C117.926 27.0312 117.956 27.0716 117.968 27.1285C117.977 27.0889 117.977 27.0551 117.977 27.0312V26.9147C117.977 26.9147 117.977 26.7982 117.853 26.7982C117.853 26.7982 117.73 26.6816 117.606 26.6816H117.359H116.804V28.138H117.051V27.6137H117.112Z" fill="#57586E"/>
<path fill-rule="evenodd" clip-rule="evenodd" d="M116.033 27.439C116.033 26.7399 116.685 26.0991 117.396 26.0991C118.167 26.0991 118.76 26.6817 118.76 27.439C118.76 28.138 118.108 28.7788 117.396 28.7788C116.685 28.7788 116.033 28.138 116.033 27.439ZM116.152 27.439C116.152 28.138 116.685 28.6623 117.396 28.6623C118.048 28.6623 118.641 28.138 118.641 27.439C118.641 26.7399 118.108 26.2156 117.396 26.2156C116.685 26.2156 116.152 26.7399 116.152 27.439Z" fill="#57586E"/>
<path d="M71.2175 14.5647C71.4546 14.5647 71.6324 14.3316 71.6324 14.1569V12.2345C71.6324 12.0014 71.3953 11.8267 71.2175 11.8267H67.0086V5.65168C67.0086 5.41866 66.7715 5.2439 66.5936 5.2439H64.6374C64.4003 5.2439 64.2224 5.47692 64.2224 5.65168V11.8267H62.1476C61.9105 11.8267 61.7327 12.0597 61.7327 12.2345V14.1569C61.7327 14.3899 61.9698 14.5647 62.1476 14.5647H64.2224V23.8854C64.2224 26.7399 66.1787 28.604 69.0241 28.604H71.0989C71.336 28.604 71.5139 28.371 71.5139 28.1963V26.2738C71.5139 26.0408 71.2767 25.8661 71.0989 25.8661H69.3205C67.9571 25.8661 67.0086 24.934 67.0086 23.4776V14.5064H71.2175V14.5647V14.5647Z" fill="#57586E"/>
<path d="M112.832 14.5647C113.069 14.5647 113.247 14.3316 113.247 14.1569V12.2345C113.247 12.0014 113.01 11.8267 112.832 11.8267H108.623V5.65168C108.623 5.41866 108.386 5.2439 108.208 5.2439H106.252C106.015 5.2439 105.837 5.47692 105.837 5.65168V11.8267H103.762C103.525 11.8267 103.347 12.0597 103.347 12.2345V14.1569C103.347 14.3899 103.584 14.5647 103.762 14.5647H105.837V23.8854C105.837 26.7399 107.793 28.604 110.639 28.604H112.713C112.951 28.604 113.128 28.371 113.128 28.1963V26.2738C113.128 26.0408 112.891 25.8661 112.713 25.8661H110.816C109.453 25.8661 108.505 24.934 108.505 23.4776V14.5064H112.773L112.832 14.5647V14.5647Z" fill="#57586E"/>
<path d="M42.4666 14.5647V28.3128C42.4666 28.5458 42.7037 28.7206 42.8815 28.7206H44.8378C45.0749 28.7206 45.2527 28.4876 45.2527 28.3128V14.5647H49.8766C50.1137 14.5647 50.2915 14.3317 50.2915 14.1569V12.2345C50.2915 12.0015 50.0544 11.8267 49.8766 11.8267H45.2527V8.21494C45.2527 6.75858 46.3198 5.76824 47.5646 5.76824H49.8766C50.1137 5.76824 50.2915 5.53523 50.2915 5.36046V3.43806C50.2915 3.20504 50.0544 3.03027 49.8766 3.03027H47.6832C44.7785 3.03027 42.4666 5.41872 42.4666 8.15669V11.8267H40.3918C40.1546 11.8267 39.9768 12.0598 39.9768 12.2345V14.1569C39.9768 14.3899 40.2139 14.5647 40.3918 14.5647H42.4666V14.5647Z" fill="#57586E"/>
<path fill-rule="evenodd" clip-rule="evenodd" d="M84.3183 11.3025C86.6302 11.3025 88.8236 12.2346 90.3649 13.8657C91.9061 15.4968 92.7361 17.7688 92.7361 20.2737C92.7361 26.507 88.4086 29.3032 84.259 29.3032C80.0501 29.3032 75.782 26.5652 75.782 20.2737V3.3216C75.782 3.14684 75.9598 2.91382 76.1969 2.91382H78.1532C78.331 2.91382 78.5681 3.08858 78.5681 3.3216V13.5744C79.9316 12.2346 82.1249 11.3025 84.3183 11.3025ZM78.5089 20.332C78.5089 23.4195 80.0501 26.6817 84.259 26.6817C88.4679 26.6817 89.9499 23.4195 90.0092 20.332C90.0092 16.6037 87.6973 14.0405 84.259 14.0405C80.8208 14.0405 78.5089 16.5454 78.5089 20.332Z" fill="#57586E"/>
</g>
</svg>
