<svg width="208" height="32" viewBox="0 0 208 32" fill="none" xmlns="http://www.w3.org/2000/svg">
<path d="M57.24 6.8V25H54.25V12.026L48.712 21.178H48.348L42.81 12V25H39.82V6.8H43.044L48.53 15.9L54.042 6.8H57.24ZM70.9828 12H73.7908V25H70.9828V23.128C69.9255 24.6013 68.4088 25.338 66.4328 25.338C64.6475 25.338 63.1222 24.6793 61.8568 23.362C60.5915 22.0273 59.9588 20.4067 59.9588 18.5C59.9588 16.576 60.5915 14.9553 61.8568 13.638C63.1222 12.3207 64.6475 11.662 66.4328 11.662C68.4088 11.662 69.9255 12.39 70.9828 13.846V12ZM63.9368 21.49C64.7168 22.27 65.6962 22.66 66.8748 22.66C68.0535 22.66 69.0328 22.27 69.8128 21.49C70.5928 20.6927 70.9828 19.696 70.9828 18.5C70.9828 17.304 70.5928 16.316 69.8128 15.536C69.0328 14.7387 68.0535 14.34 66.8748 14.34C65.6962 14.34 64.7168 14.7387 63.9368 15.536C63.1568 16.316 62.7668 17.304 62.7668 18.5C62.7668 19.696 63.1568 20.6927 63.9368 21.49ZM79.5096 15.588C79.5096 16.0213 79.7436 16.368 80.2116 16.628C80.6969 16.8707 81.2776 17.0873 81.9536 17.278C82.6469 17.4513 83.3403 17.6593 84.0336 17.902C84.7269 18.1447 85.3076 18.5607 85.7756 19.15C86.2609 19.722 86.5036 20.45 86.5036 21.334C86.5036 22.582 86.0183 23.5613 85.0476 24.272C84.0943 24.9827 82.8896 25.338 81.4336 25.338C80.1509 25.338 79.0503 25.0693 78.1316 24.532C77.2129 23.9947 76.5456 23.2493 76.1296 22.296L78.5476 20.892C78.9983 22.14 79.9603 22.764 81.4336 22.764C82.9069 22.764 83.6436 22.2787 83.6436 21.308C83.6436 20.892 83.4009 20.554 82.9156 20.294C82.4476 20.034 81.8669 19.8173 81.1736 19.644C80.4976 19.4533 79.8129 19.2367 79.1196 18.994C78.4263 18.7513 77.8369 18.3527 77.3516 17.798C76.8836 17.226 76.6496 16.5067 76.6496 15.64C76.6496 14.444 77.1003 13.482 78.0016 12.754C78.9203 12.026 80.0556 11.662 81.4076 11.662C82.4823 11.662 83.4356 11.9047 84.2676 12.39C85.1169 12.858 85.7669 13.5167 86.2176 14.366L83.8516 15.692C83.4009 14.704 82.5863 14.21 81.4076 14.21C80.8703 14.21 80.4196 14.3313 80.0556 14.574C79.6916 14.7993 79.5096 15.1373 79.5096 15.588ZM95.7182 14.704H92.4942V20.944C92.4942 21.4813 92.6155 21.8713 92.8582 22.114C93.1008 22.3393 93.4562 22.4693 93.9242 22.504C94.4095 22.5213 95.0075 22.5127 95.7182 22.478V25C93.5688 25.26 92.0262 25.078 91.0902 24.454C90.1542 23.8127 89.6862 22.6427 89.6862 20.944V14.704H87.2942V12H89.6862V9.192L92.4942 8.36V12H95.7182V14.704ZM99.9418 19.696C100.15 20.684 100.626 21.4467 101.372 21.984C102.117 22.504 103.027 22.764 104.102 22.764C105.592 22.764 106.71 22.2267 107.456 21.152L109.77 22.504C108.487 24.3933 106.589 25.338 104.076 25.338C101.961 25.338 100.254 24.6967 98.9538 23.414C97.6538 22.114 97.0038 20.476 97.0038 18.5C97.0038 16.5587 97.6451 14.938 98.9278 13.638C100.21 12.3207 101.857 11.662 103.868 11.662C105.774 11.662 107.334 12.3293 108.548 13.664C109.778 14.9987 110.394 16.6193 110.394 18.526C110.394 18.8207 110.359 19.2107 110.29 19.696H99.9418ZM99.9157 17.408H107.56C107.369 16.3507 106.927 15.5533 106.234 15.016C105.558 14.4787 104.76 14.21 103.842 14.21C102.802 14.21 101.935 14.496 101.242 15.068C100.548 15.64 100.106 16.42 99.9157 17.408ZM115.673 14.184C116.383 12.572 117.718 11.766 119.677 11.766V14.808C118.602 14.7387 117.666 14.9987 116.869 15.588C116.071 16.16 115.673 17.1133 115.673 18.448V25H112.865V12H115.673V14.184ZM139.093 9.66H131.423V14.756H138.833V17.616H131.423V25H128.433V6.8H139.093V9.66ZM141.708 25V6.02H144.516V25H141.708ZM153.913 25.338C152.006 25.338 150.385 24.6793 149.051 23.362C147.716 22.0447 147.049 20.424 147.049 18.5C147.049 16.576 147.716 14.9553 149.051 13.638C150.385 12.3207 152.006 11.662 153.913 11.662C155.837 11.662 157.457 12.3207 158.775 13.638C160.109 14.9553 160.777 16.576 160.777 18.5C160.777 20.424 160.109 22.0447 158.775 23.362C157.457 24.6793 155.837 25.338 153.913 25.338ZM151.027 21.438C151.807 22.218 152.769 22.608 153.913 22.608C155.057 22.608 156.019 22.218 156.799 21.438C157.579 20.658 157.969 19.6787 157.969 18.5C157.969 17.3213 157.579 16.342 156.799 15.562C156.019 14.782 155.057 14.392 153.913 14.392C152.769 14.392 151.807 14.782 151.027 15.562C150.247 16.342 149.857 17.3213 149.857 18.5C149.857 19.6787 150.247 20.658 151.027 21.438ZM177.784 12H180.748L176.666 25H173.91L171.206 16.238L168.476 25H165.72L161.638 12H164.602L167.124 20.97L169.854 12H172.532L175.236 20.97L177.784 12Z" fill="white"/>
<path d="M25.8333 9L15.5417 19.2917L10.125 13.875L2 22" stroke="#175CFF" stroke-width="3.2" stroke-linecap="round" stroke-linejoin="round"/>
<path d="M19.3335 9H25.8335V15.5" stroke="#175CFF" stroke-width="3.2" stroke-linecap="round" stroke-linejoin="round"/>
</svg>
