<svg width="119" height="40" viewBox="0 0 119 40" fill="none" xmlns="http://www.w3.org/2000/svg">
<g opacity="0.6">
<path d="M29.3792 13.8319H15.5574V17.9074H25.3862C24.8948 23.6502 20.1032 26.1819 15.6188 26.1819C9.84441 26.1819 4.80715 21.6124 4.80715 15.2522C4.80715 9.01544 9.59869 4.19894 15.6188 4.19894C20.2875 4.19894 22.9904 7.16294 22.9904 7.16294L25.8162 4.19894C25.8162 4.19894 22.1304 0.12344 15.4345 0.12344C6.89577 0.0616899 0.322754 7.28644 0.322754 15.1287C0.322754 22.7857 6.52719 30.2574 15.6803 30.2574C23.7276 30.2574 29.6249 24.7617 29.6249 16.5489C29.6249 14.8199 29.3792 13.8319 29.3792 13.8319V13.8319Z" fill="#57586E"/>
<path fill-rule="evenodd" clip-rule="evenodd" d="M30.915 20.4392C30.915 15.2522 34.9694 10.8062 40.621 10.8062C45.2897 10.8062 50.3269 14.1407 50.3884 20.5627C50.3884 26.2437 46.0883 30.2574 40.7438 30.2574C34.8466 30.2574 30.915 25.7497 30.915 20.4392ZM46.0883 20.5627C46.0883 16.9812 43.4468 14.6964 40.6824 14.6964C37.5495 14.6964 35.1537 17.1664 35.2151 20.5009C35.2151 23.9589 37.6109 26.4289 40.6824 26.4289C43.5082 26.4289 46.0883 24.1442 46.0883 20.5627Z" fill="#57586E"/>
<path fill-rule="evenodd" clip-rule="evenodd" d="M52.0469 20.4392C52.0469 15.2522 56.1013 10.8062 61.7528 10.8062C66.4215 10.8062 71.4588 14.1407 71.5202 20.5627C71.5202 26.2437 67.2201 30.2574 61.8757 30.2574C55.9784 30.2574 52.0469 25.7497 52.0469 20.4392ZM67.2201 20.5627C67.2201 16.9812 64.5786 14.6964 61.8143 14.6964C58.6813 14.6964 56.2855 17.1664 56.347 20.5009C56.347 23.9589 58.7428 26.4289 61.8143 26.4289C64.64 26.4289 67.2201 24.1442 67.2201 20.5627Z" fill="#57586E"/>
<path fill-rule="evenodd" clip-rule="evenodd" d="M73.1787 20.5627C73.1787 15.4374 77.2331 10.8679 82.4546 10.8679C84.7276 10.8679 86.4476 11.7324 87.5533 13.0909V11.4237H91.6077V28.8989C91.6077 35.7532 87.6762 39.0259 82.5161 39.0259C77.786 39.0259 75.1445 36.1237 73.8544 33.3449L77.6017 31.8012C78.1545 33.0362 79.6289 35.2592 82.5775 35.2592C85.649 35.2592 87.6762 33.2214 87.6762 29.8869V27.9727C86.509 29.2694 85.0961 30.3192 82.3318 30.3192C77.9088 30.3192 73.1787 26.3672 73.1787 20.5627ZM87.9834 20.6244C87.9834 16.9194 85.3419 14.6964 82.8232 14.6964C80.1203 14.6964 77.4788 16.8577 77.4174 20.6862C77.4174 24.2059 79.9974 26.4907 82.7618 26.4907C85.4033 26.4907 87.9834 24.4529 87.9834 20.6244Z" fill="#57586E"/>
<path fill-rule="evenodd" clip-rule="evenodd" d="M100.761 20.5009C100.761 14.6964 104.877 10.8062 109.791 10.8062C113.6 10.8062 116.487 13.3997 117.777 16.3637L118.453 17.9692L105.491 23.4032C106.29 24.8852 107.518 26.3672 110.221 26.3672C112.617 26.3672 114.091 25.0704 114.951 23.7119L118.33 25.9967C116.856 27.9727 114.276 30.2574 110.221 30.2574C105.368 30.2574 100.761 26.6142 100.761 20.5009ZM113.538 16.6724C112.924 15.4992 111.696 14.5729 109.914 14.5729C107.15 14.5729 104.447 17.4752 104.938 20.3157L113.538 16.6724Z" fill="#57586E"/>
<path d="M94.6179 29.7017H98.8566V1.04968H94.6179V29.7017Z" fill="#57586E"/>
</g>
</svg>
