<svg width="208" height="32" viewBox="0 0 208 32" fill="none" xmlns="http://www.w3.org/2000/svg">
<path d="M57.2393 6.8V25H54.2493V12.026L48.7113 21.178H48.3473L42.8093 12V25H39.8193V6.8H43.0433L48.5293 15.9L54.0413 6.8H57.2393ZM70.9821 12H73.7901V25H70.9821V23.128C69.9248 24.6013 68.4081 25.338 66.4321 25.338C64.6468 25.338 63.1214 24.6793 61.8561 23.362C60.5908 22.0273 59.9581 20.4067 59.9581 18.5C59.9581 16.576 60.5908 14.9553 61.8561 13.638C63.1214 12.3207 64.6468 11.662 66.4321 11.662C68.4081 11.662 69.9248 12.39 70.9821 13.846V12ZM63.9361 21.49C64.7161 22.27 65.6954 22.66 66.8741 22.66C68.0528 22.66 69.0321 22.27 69.8121 21.49C70.5921 20.6927 70.9821 19.696 70.9821 18.5C70.9821 17.304 70.5921 16.316 69.8121 15.536C69.0321 14.7387 68.0528 14.34 66.8741 14.34C65.6954 14.34 64.7161 14.7387 63.9361 15.536C63.1561 16.316 62.7661 17.304 62.7661 18.5C62.7661 19.696 63.1561 20.6927 63.9361 21.49ZM79.5089 15.588C79.5089 16.0213 79.7429 16.368 80.2109 16.628C80.6962 16.8707 81.2769 17.0873 81.9529 17.278C82.6462 17.4513 83.3395 17.6593 84.0329 17.902C84.7262 18.1447 85.3069 18.5607 85.7749 19.15C86.2602 19.722 86.5029 20.45 86.5029 21.334C86.5029 22.582 86.0175 23.5613 85.0469 24.272C84.0935 24.9827 82.8889 25.338 81.4329 25.338C80.1502 25.338 79.0495 25.0693 78.1309 24.532C77.2122 23.9947 76.5449 23.2493 76.1289 22.296L78.5469 20.892C78.9975 22.14 79.9595 22.764 81.4329 22.764C82.9062 22.764 83.6429 22.2787 83.6429 21.308C83.6429 20.892 83.4002 20.554 82.9149 20.294C82.4469 20.034 81.8662 19.8173 81.1729 19.644C80.4969 19.4533 79.8122 19.2367 79.1189 18.994C78.4255 18.7513 77.8362 18.3527 77.3509 17.798C76.8829 17.226 76.6489 16.5067 76.6489 15.64C76.6489 14.444 77.0995 13.482 78.0009 12.754C78.9195 12.026 80.0549 11.662 81.4069 11.662C82.4815 11.662 83.4349 11.9047 84.2669 12.39C85.1162 12.858 85.7662 13.5167 86.2169 14.366L83.8509 15.692C83.4002 14.704 82.5855 14.21 81.4069 14.21C80.8695 14.21 80.4189 14.3313 80.0549 14.574C79.6909 14.7993 79.5089 15.1373 79.5089 15.588ZM95.7174 14.704H92.4934V20.944C92.4934 21.4813 92.6148 21.8713 92.8574 22.114C93.1001 22.3393 93.4554 22.4693 93.9234 22.504C94.4088 22.5213 95.0068 22.5127 95.7174 22.478V25C93.5681 25.26 92.0254 25.078 91.0894 24.454C90.1534 23.8127 89.6854 22.6427 89.6854 20.944V14.704H87.2934V12H89.6854V9.192L92.4934 8.36V12H95.7174V14.704ZM99.941 19.696C100.149 20.684 100.626 21.4467 101.371 21.984C102.116 22.504 103.026 22.764 104.101 22.764C105.592 22.764 106.71 22.2267 107.455 21.152L109.769 22.504C108.486 24.3933 106.588 25.338 104.075 25.338C101.96 25.338 100.253 24.6967 98.953 23.414C97.653 22.114 97.003 20.476 97.003 18.5C97.003 16.5587 97.6444 14.938 98.927 13.638C100.21 12.3207 101.856 11.662 103.867 11.662C105.774 11.662 107.334 12.3293 108.547 13.664C109.778 14.9987 110.393 16.6193 110.393 18.526C110.393 18.8207 110.358 19.2107 110.289 19.696H99.941ZM99.915 17.408H107.559C107.368 16.3507 106.926 15.5533 106.233 15.016C105.557 14.4787 104.76 14.21 103.841 14.21C102.801 14.21 101.934 14.496 101.241 15.068C100.548 15.64 100.106 16.42 99.915 17.408ZM115.672 14.184C116.382 12.572 117.717 11.766 119.676 11.766V14.808C118.601 14.7387 117.665 14.9987 116.868 15.588C116.07 16.16 115.672 17.1133 115.672 18.448V25H112.864V12H115.672V14.184ZM139.093 9.66H131.423V14.756H138.833V17.616H131.423V25H128.433V6.8H139.093V9.66ZM141.708 25V6.02H144.516V25H141.708ZM153.912 25.338C152.005 25.338 150.385 24.6793 149.05 23.362C147.715 22.0447 147.048 20.424 147.048 18.5C147.048 16.576 147.715 14.9553 149.05 13.638C150.385 12.3207 152.005 11.662 153.912 11.662C155.836 11.662 157.457 12.3207 158.774 13.638C160.109 14.9553 160.776 16.576 160.776 18.5C160.776 20.424 160.109 22.0447 158.774 23.362C157.457 24.6793 155.836 25.338 153.912 25.338ZM151.026 21.438C151.806 22.218 152.768 22.608 153.912 22.608C155.056 22.608 156.018 22.218 156.798 21.438C157.578 20.658 157.968 19.6787 157.968 18.5C157.968 17.3213 157.578 16.342 156.798 15.562C156.018 14.782 155.056 14.392 153.912 14.392C152.768 14.392 151.806 14.782 151.026 15.562C150.246 16.342 149.856 17.3213 149.856 18.5C149.856 19.6787 150.246 20.658 151.026 21.438ZM177.783 12H180.747L176.665 25H173.909L171.205 16.238L168.475 25H165.719L161.637 12H164.601L167.123 20.97L169.853 12H172.531L175.235 20.97L177.783 12Z" fill="#0A083B"/>
<path d="M25.8316 8.99902L15.54 19.2907L10.1233 13.874L1.99829 21.999" stroke="#175CFF" stroke-width="3.2" stroke-linecap="round" stroke-linejoin="round"/>
<path d="M19.3313 8.99829H25.8313V15.4983" stroke="#175CFF" stroke-width="3.2" stroke-linecap="round" stroke-linejoin="round"/>
</svg>
