<svg width="119" height="33" viewBox="0 0 119 33" fill="none" xmlns="http://www.w3.org/2000/svg">
<g opacity="0.6">
<path fill-rule="evenodd" clip-rule="evenodd" d="M13.4883 30.8218L13.4882 30.8218C12.8058 30.8917 12.1131 30.9627 11.4037 31.05L5.71283 14.5864V31.7506C3.93443 31.9258 2.33387 32.1593 0.614746 32.4512V0.983398H5.35715L11.8187 18.8482V0.983398H16.8575V30.4078C15.7441 30.5906 14.6308 30.7047 13.4883 30.8218ZM30.2001 12.4825L30.2002 12.4825C31.3781 12.4541 32.5286 12.4262 33.3966 12.4262V17.3303C31.2032 17.3303 28.5949 17.3303 26.6979 17.4471V24.7448C27.6217 24.6891 28.5514 24.6275 29.4852 24.5656L29.4852 24.5656L29.4853 24.5656L29.4853 24.5656L29.4854 24.5656L29.4854 24.5656C31.488 24.4329 33.5093 24.299 35.5307 24.2194V28.9483L21.7184 29.9992V0.983398H35.5307V5.88747H26.6979V12.543C27.6993 12.543 28.9648 12.5124 30.2001 12.4825ZM48.8687 5.94585H54.026C54.026 5.94585 54.026 0.983398 54.0853 0.983398H38.7318V5.94585H43.8891V28.598C45.4897 28.5396 47.2088 28.5396 48.8687 28.5396V5.94585ZM62.1474 12.1927H68.9646V17.0968H62.1474V28.2477H57.2271V0.983398H71.1579V5.88747H62.1474V12.1927ZM84.4488 24.1621C82.7345 24.0629 81.0069 23.9629 79.2793 23.9275V0.983398H74.2998V28.5396C78.8643 28.6564 83.3103 28.8899 87.7563 29.1818V24.3361C86.6618 24.2903 85.558 24.2264 84.4488 24.1621ZM93.6476 29.6397L93.6479 29.6397C94.7161 29.7033 95.8008 29.7679 96.8855 29.8824V0.983398H91.9652V29.5321C92.5197 29.5726 93.0814 29.606 93.6476 29.6397ZM112.358 15.9291L118.701 0.983398H113.187L109.69 9.21523L106.43 0.983398H101.094L106.904 15.754L100.502 30.1159C101.213 30.2093 101.924 30.2841 102.636 30.3588C103.703 30.4709 104.77 30.583 105.837 30.7581L109.512 22.4095L113.069 31.5171C113.733 31.6193 114.39 31.7287 115.045 31.8377C116.26 32.04 117.468 32.2411 118.701 32.3928L112.358 15.9291Z" fill="#57586E"/>
</g>
</svg>
