<svg width="136" height="40" viewBox="0 0 136 40" fill="none" xmlns="http://www.w3.org/2000/svg">
<g opacity="0.6">
<path d="M24.9813 3.90169C24.4406 2.1301 22.5482 1.17617 20.7909 1.72127C19.0336 2.26638 18.0874 4.17424 18.6281 5.94583L27.2793 32.7922C27.8875 34.4275 29.6448 35.3814 31.3345 34.9044C33.0917 34.3593 34.1731 32.5196 33.6324 30.748C33.6324 30.6799 24.9813 3.90169 24.9813 3.90169" fill="#57586E"/>
<path d="M11.599 8.33064C11.0583 6.55906 9.16584 5.60513 7.40858 6.15023C5.65132 6.69533 4.7051 8.6032 5.24579 10.3748L13.8969 37.2211C14.5052 38.8564 16.2625 39.8104 17.9522 39.3334C19.7094 38.7883 20.7908 36.9486 20.2501 35.177C20.2501 35.1088 11.599 8.33064 11.599 8.33064" fill="#57586E"/>
<path d="M35.9304 26.1829C37.6877 25.6378 38.6339 23.7299 38.0932 21.9583C37.5525 20.1867 35.6601 19.2328 33.9028 19.7779L7.20594 28.4314C5.58385 29.0447 4.63763 30.8163 5.11074 32.5197C5.65143 34.2913 7.47628 35.3815 9.23355 34.8364C9.36872 34.8364 35.9304 26.1829 35.9304 26.1829" fill="#57586E"/>
<path d="M12.748 33.7461C14.5053 33.201 16.7357 32.4515 19.1012 31.6338C18.5605 29.8623 17.8171 27.6137 17.006 25.2289L10.6528 27.3412L12.748 33.7461" fill="#57586E"/>
<path d="M26.1977 29.3172C28.6309 28.4995 30.8612 27.8181 32.5509 27.2049C32.0102 25.4333 31.2668 23.1848 30.4557 20.7999L24.1025 22.9122L26.1977 29.3172" fill="#57586E"/>
<path d="M31.5372 12.6234C33.2944 12.0783 34.2406 10.1705 33.7 8.39888C33.1593 6.62729 31.2668 5.67336 29.5096 6.21847L2.88025 14.9401C1.25816 15.5534 0.311943 17.3249 0.785053 19.0284C1.32575 20.8681 3.1506 21.9583 4.90786 21.3451C4.97545 21.3451 31.5372 12.6234 31.5372 12.6234" fill="#57586E"/>
<path d="M8.42235 20.1867C10.1796 19.6416 12.41 18.8921 14.7755 18.0744C13.9645 15.6214 13.2886 13.3729 12.6803 11.6694L6.32715 13.7817L8.42235 20.1867" fill="#57586E"/>
<path d="M21.8047 15.8258C24.2378 15.0082 26.4682 14.3268 28.1579 13.7136C27.3468 11.2606 26.6709 9.01204 26.0627 7.30859L19.7095 9.42087L21.8047 15.8258" fill="#57586E"/>
<path d="M62.8976 10.988C64.0465 11.5331 64.1817 11.8738 63.2355 13.6454C62.2893 15.4851 62.0865 15.5533 60.8699 15.0763C59.383 14.4631 57.5582 13.9861 56.3416 13.9861C54.3816 13.9861 53.0974 14.6675 53.0974 15.7577C53.0974 19.3008 64.3845 17.393 64.3845 25.0244C64.3845 28.8402 61.1403 31.3613 56.274 31.3613C53.7057 31.3613 50.5291 30.4755 48.3663 29.3853C47.2849 28.8402 47.2174 28.4995 48.1636 26.6597C48.9746 25.0926 49.245 24.8882 50.3939 25.3651C52.2864 26.1828 54.5843 26.796 56.2064 26.796C58.0313 26.796 59.1803 26.0465 59.1803 24.9563C59.1803 21.4813 47.6905 23.1166 47.6905 15.7577C47.6905 11.8738 50.9346 9.21643 55.7333 9.21643C58.0313 9.42084 60.9375 10.1022 62.8976 10.988" fill="#57586E"/>
<path d="M72.0219 1.99386V30.3392C72.0219 30.7481 71.5488 31.225 70.9405 31.225H67.9666C67.2908 31.225 66.8853 30.7481 66.8853 30.3392V1.99386C66.8853 0.562962 67.2908 0.494824 69.4536 0.494824C71.8867 0.426687 72.0219 0.6311 72.0219 1.99386" fill="#57586E"/>
<path fill-rule="evenodd" clip-rule="evenodd" d="M92.9737 30.0667V17.87C92.9737 12.5552 89.3916 9.4209 83.7143 9.4209C81.146 9.4209 78.3073 10.2386 76.2797 11.6013C75.1983 12.2827 75.1983 12.6234 76.2797 14.3268C77.4287 16.0303 77.6314 16.0984 78.7128 15.4852C80.0646 14.6675 81.7542 14.1224 83.1736 14.1224C86.1474 14.1224 87.9047 15.4852 87.9047 17.7337V19.1646C86.4853 18.5514 84.7281 18.2107 82.8356 18.2107C77.7666 18.2107 74.4548 20.9362 74.4548 25.0245C74.4548 28.8402 77.4287 31.4294 81.8218 31.4294C84.1198 31.4294 86.4177 30.4755 87.9722 28.7039L87.9047 29.9986C87.8371 30.6799 88.3102 31.1569 88.9861 31.1569H91.8923C92.5006 31.1569 92.9737 30.7481 92.9737 30.0667ZM82.4301 27.3412C80.6053 27.3412 79.3887 26.3872 79.3887 24.9563C79.3887 23.1848 81.2135 21.822 83.917 21.822C85.2012 21.822 86.6881 22.0264 87.8371 22.5034V24.4112C86.6881 26.251 84.6605 27.3412 82.4301 27.3412Z" fill="#57586E"/>
<path d="M113.047 11.0562C114.129 11.6695 114.129 12.0102 112.98 13.8499C111.898 15.5533 111.695 15.6896 110.479 15.0764C109.6 14.5994 108.113 14.1906 106.964 14.1906C103.247 14.1906 100.814 16.6435 100.814 20.3911C100.814 24.275 103.247 26.8642 106.964 26.8642C108.249 26.8642 109.871 26.3873 110.884 25.774C111.966 25.1608 112.169 25.1608 113.318 26.8642C114.331 28.4314 114.331 28.7721 113.385 29.4535C111.763 30.6118 109.127 31.4976 106.829 31.4976C100.003 31.4976 95.407 27.0687 95.407 20.4593C95.407 13.8499 100.003 9.48907 106.897 9.48907C109.06 9.42093 111.493 10.1023 113.047 11.0562" fill="#57586E"/>
<path d="M135.419 28.4996C136.297 29.5898 135.959 29.9986 133.796 30.7481C131.634 31.5658 131.296 31.4976 130.552 30.4756L124.402 22.2309L121.631 24.8883V30.2711C121.631 30.68 121.158 31.1569 120.549 31.1569H117.576C116.9 31.1569 116.494 30.68 116.494 30.2711V1.99391C116.494 0.563011 116.9 0.494873 119.062 0.494873C121.563 0.494873 121.631 0.699287 121.631 1.99391V18.0745L130.012 9.96605C130.958 9.08025 131.431 9.14839 133.121 10.2386C134.945 11.3969 135.081 11.7376 134.202 12.6234L127.984 18.7558L135.419 28.4996" fill="#57586E"/>
</g>
</svg>
